<svg width="227" height="43" viewBox="0 0 227 43" fill="none" xmlns="http://www.w3.org/2000/svg">
<g clip-path="url(#clip0_957_51035)">
<path d="M210.142 3.72518C211.456 2.91033 213.506 3.19389 214.296 4.61767C214.897 5.75192 214.924 7.08313 215.115 8.3278C215.252 8.3487 215.532 8.3905 215.672 8.41135C215.654 6.8354 215.654 5.25939 215.669 3.68344C216.539 3.68642 217.41 3.68045 218.282 3.66253C218.282 5.19077 218.309 6.719 218.294 8.24723C218.426 10.5037 215.267 11.444 213.658 10.259C212.019 9.22924 212.502 7.01749 211.826 5.44148C211.289 6.76074 211.239 8.22334 210.69 9.53365C209.355 11.4798 205.738 11.0589 205.231 8.63525C205.124 6.98464 205.222 5.32807 205.19 3.67448C206.09 3.68045 206.993 3.68344 207.895 3.67448C207.911 5.24147 207.904 6.81151 207.892 8.37856C208.011 8.38155 208.25 8.39349 208.369 8.39946C208.804 6.82047 208.56 4.69824 210.142 3.72518Z" fill="#FD3E31"/>
<path d="M198.801 9.49183C200.526 9.53364 202.264 9.39932 203.983 9.56642C206.036 10.2381 206.453 13.3094 204.826 14.6436C203.616 15.6823 201.867 15.2973 200.494 15.9868C201.954 16.5569 203.795 16.2943 204.984 17.4583C206.498 18.894 205.917 22.1206 203.703 22.443C202.067 22.5384 200.425 22.443 198.789 22.4967C198.799 21.5863 198.801 20.676 198.805 19.7686C200.437 19.7059 202.109 19.9775 203.712 19.5746C202.559 19.0731 201.301 18.9955 200.098 18.706C197.764 17.8821 197.887 13.8526 200.277 13.1661C201.451 12.9064 202.672 12.8348 203.801 12.3632C202.156 12.0408 200.476 12.2319 198.813 12.217C198.801 11.3066 198.801 10.3992 198.801 9.49183Z" fill="#FD3E31"/>
<path d="M218.128 13.8823C217.123 12.3661 217.961 9.81997 219.836 9.53044C221.495 9.43196 223.16 9.52148 224.823 9.49461C224.811 10.399 224.808 11.3034 224.802 12.2049C223.095 12.2645 221.361 12.0108 219.674 12.369C220.896 12.8973 222.255 12.8466 223.512 13.2256C225.243 13.9569 225.675 16.3478 224.656 17.8103C223.491 19.3415 221.307 18.7774 219.749 19.6012C221.411 19.9683 223.131 19.7027 224.82 19.7803C224.811 20.6817 224.811 21.5802 224.817 22.4816C223.259 22.4607 221.703 22.5174 220.148 22.4636C218.068 22.4965 217.061 19.64 218.134 18.061C219.058 16.3149 221.319 16.5388 222.958 16.103C222.865 15.9896 222.678 15.7657 222.582 15.6553C221.018 15.4553 218.962 15.5091 218.128 13.8823Z" fill="#FD3E31"/>
<path d="M212.633 22.6785C213.36 21.8876 214.286 21.1115 215.439 21.219C216.571 21.1324 217.478 21.9055 218.225 22.6576C218.327 24.5052 218.291 26.3558 218.276 28.2034C217.487 28.2512 216.691 28.3139 215.904 28.2303C215.538 28.096 215.702 27.6482 215.651 27.3587C215.63 26.0185 215.714 24.6754 215.573 23.3382C214.4 24.6157 215.252 26.9051 213.735 28.0183C212.392 29.1705 210.139 28.8451 209.215 27.3318C208.735 26.129 208.61 24.8217 208.354 23.5621L207.883 23.5978C207.889 25.1619 207.901 26.723 207.874 28.287C206.968 28.2721 206.069 28.2363 205.172 28.1586C205.234 26.5678 205.118 24.9739 205.226 23.3859C205.615 21.392 208.304 20.5623 209.876 21.7234C211.497 22.7561 211.074 24.9679 211.778 26.5349C212.237 25.2932 212.398 23.974 212.633 22.6785Z" fill="#FD3E31"/>
<path d="M177.507 14.9709C180.913 13.7202 184.697 13.3531 188.23 14.2814C190.793 14.8336 193.406 16.1111 194.759 18.4661C195.349 19.3735 195.366 20.4958 195.438 21.5435C192.595 21.5256 189.75 21.5763 186.908 21.5166C186.571 18.8302 182.831 18.4512 181.175 20.1048C180.457 20.9286 180.811 22.3165 181.827 22.7105C185.587 24.5462 189.947 25.0715 193.412 27.531C194.816 28.4921 195.7 30.095 195.834 31.7873C195.891 34.1782 194.586 36.5213 192.551 37.763C189.7 39.5419 186.219 39.7748 182.947 39.718C179.605 39.5897 175.939 38.951 173.529 36.4138C172.099 35.002 171.563 32.9485 171.654 30.9815C174.512 30.9785 177.372 30.9695 180.233 30.9874C180.242 32.3993 181.115 33.7842 182.492 34.2081C183.824 34.5125 185.417 34.4827 186.437 33.435C187.137 32.8917 187.164 31.8829 186.94 31.0949C185.903 29.9159 184.27 29.6114 182.861 29.0981C179.792 28.1041 176.449 27.4146 173.985 25.176C172.373 23.7284 171.593 21.2629 172.528 19.2332C173.419 17.1199 175.484 15.8365 177.507 14.9709Z" fill="#0B2177"/>
<path d="M1.27847 38.8498C1.28145 30.6714 1.29636 22.49 1.26953 14.3086C5.32184 14.3295 9.37416 14.2996 13.4264 14.3235C15.5151 19.7797 17.4728 25.2837 19.5824 30.7281C21.6562 25.245 23.9684 19.8484 25.9527 14.3355C29.8918 14.2937 33.8279 14.3235 37.767 14.3205C37.7581 22.493 37.764 30.6684 37.764 38.8408C35.2581 38.8468 32.7553 38.8289 30.2494 38.8498C30.2196 32.5847 30.3239 26.3165 30.2017 20.0543C27.8925 26.3524 25.2317 32.522 22.9254 38.82C20.5418 38.8647 18.1551 38.8289 15.7714 38.8379C13.4652 32.5817 10.9861 26.3852 8.80206 20.0842C8.63817 26.3285 8.76927 32.5877 8.7335 38.8379C6.24849 38.8528 3.76348 38.8259 1.27847 38.8498Z" fill="#0B2177"/>
<path d="M41.5567 38.8497C41.5448 30.6712 41.5567 22.4928 41.5508 14.3145C48.7912 14.3174 56.0346 14.3145 63.2753 14.3145C63.2753 15.9233 63.2633 17.5291 63.2812 19.1379C58.6089 19.1409 53.9372 19.1409 49.265 19.1379C49.265 20.8751 49.2442 22.6092 49.2769 24.3464C53.2726 24.3255 57.2711 24.3524 61.2667 24.3315C61.2637 25.8537 61.2608 27.376 61.2727 28.8983C57.2651 28.9042 53.2607 28.8983 49.256 28.9012C49.262 30.5966 49.262 32.292 49.2531 33.9874C53.9253 33.9904 58.597 33.9874 63.2693 33.9904C63.2723 35.6052 63.2723 37.2229 63.2753 38.8377C56.0346 38.8467 48.7972 38.8258 41.5567 38.8497Z" fill="#0B2177"/>
<path d="M66.6992 14.3232C71.1807 14.3083 75.6652 14.3083 80.1467 14.3232C82.3276 14.3918 84.7081 14.4127 86.5378 15.7828C89.6695 18.2423 89.7143 23.5254 86.8478 26.2088C85.9774 27.0475 84.9019 27.6296 83.7936 28.0862C85.4176 28.8861 86.5616 30.4114 87.2645 32.0441C88.2155 34.3125 89.0912 36.6109 90.0922 38.8554C87.6878 38.8167 85.2804 38.8733 82.876 38.8197C81.9609 36.5691 80.948 34.3603 80.0096 32.1187C79.3001 30.498 77.7954 29.2055 76.0313 28.9309C75.1763 28.8623 74.3184 28.901 73.4629 28.8951C73.4689 32.2172 73.4689 35.5363 73.4659 38.8554C71.2105 38.8226 68.9552 38.8554 66.6992 38.8286C66.7082 30.6621 66.7052 22.4927 66.6992 14.3232ZM73.4689 19.1377C73.4689 20.8749 73.4599 22.6091 73.4748 24.3432C75.2002 24.3074 76.9285 24.4029 78.6539 24.2955C79.8099 24.1522 81.1984 23.9642 81.8566 22.8717C82.42 21.7345 82.1874 19.9406 80.8377 19.4869C78.4392 18.8273 75.9186 19.2661 73.4689 19.1377Z" fill="#0B2177"/>
<path d="M91.4961 38.8437C94.9498 30.6683 98.4088 22.4959 101.847 14.3115C104.71 14.3145 107.574 14.3205 110.44 14.3115C113.939 22.4959 117.481 30.6623 121.013 38.8348C118.482 38.8497 115.953 38.8348 113.423 38.8408C112.833 37.0947 112.264 35.3426 111.68 33.5964C108.069 33.5785 104.458 33.5785 100.849 33.489C100.11 35.2351 99.5291 37.0439 98.9365 38.8437C96.4569 38.8378 93.975 38.8408 91.4961 38.8437ZM102.455 28.9371C104.952 28.973 107.449 28.9551 109.949 28.9491C108.688 25.6598 107.482 22.3467 106.364 19.0066C105.032 22.3049 103.829 25.6538 102.455 28.9371Z" fill="#0B2177"/>
<path d="M118.697 19.1559C118.697 17.5411 118.7 15.9263 118.691 14.3115C126.138 14.3205 133.583 14.3115 141.03 14.3175C141.018 15.9263 141.024 17.5381 141.03 19.1469C138.643 19.135 136.259 19.141 133.876 19.141C133.87 25.7105 133.873 32.2801 133.873 38.8497C131.286 38.8318 128.703 38.8437 126.117 38.8407C126.129 32.2742 126.114 25.7075 126.123 19.141C123.647 19.1469 121.173 19.1201 118.697 19.1559Z" fill="#0B2177"/>
<path d="M143.848 14.3205C146.42 14.3115 148.991 14.3115 151.565 14.3175C151.562 19.126 151.547 23.9376 151.571 28.7461C151.667 30.4534 151.968 32.4264 153.443 33.5159C154.706 34.5038 156.404 34.462 157.918 34.2889C159.562 34.0651 160.87 32.6712 161.24 31.0832C161.455 30.1281 161.574 29.146 161.574 28.1671C161.565 23.5465 161.577 18.929 161.568 14.3115C164.16 14.3235 166.752 14.3056 169.348 14.3205C169.33 19.4305 169.348 24.5405 169.339 29.6505C169.249 31.8563 168.666 34.1815 167.062 35.7873C165.021 38.0169 161.949 38.8407 159.053 39.193C155.457 39.5064 151.67 39.2556 148.413 37.5692C145.743 36.1664 143.943 33.2979 143.905 30.2683C143.789 24.9554 143.899 19.6364 143.848 14.3205Z" fill="#0B2177"/>
</g>
<defs>
<clipPath id="clip0_957_51035">
<rect width="226" height="43" fill="white" transform="translate(0.5)"/>
</clipPath>
</defs>
</svg>
